# xmcd
#
# Track frame offsets: 
#        150
#        15944
#        30102
#        44888
#        59473
#
# Disc length: 947 seconds
#
# Revision: 0
# Processed by: cddbd v1.5.2PL0 Copyright (c) Steve Scherf et al.
# Submitted via: ExactAudioCopyFreeDBPlugin 1.0
#
DISCID=3403b105
DTITLE=Honky Tonk Disciples - Honky Tonk Disciples
DYEAR=2005
DGENRE=Country
TTITLE0=Too Late For Me
TTITLE1=Truck Stop Girl
TTITLE2=Wedding Bells
TTITLE3=Hard As Hell
TTITLE4=Kissing The Bottle
EXTD=
EXTT0=
EXTT1=
EXTT2=
EXTT3=
EXTT4=
PLAYORDER=
